<?xml version="1.0" encoding="UTF-8" standalone="no"?>
<!DOCTYPE svg PUBLIC "-//W3C//DTD SVG 1.1//EN" "http://www.w3.org/Graphics/SVG/1.1/DTD/svg11.dtd">
<svg width="100%" height="100%" viewBox="0 0 747 324" version="1.1" xmlns="http://www.w3.org/2000/svg" xmlns:xlink="http://www.w3.org/1999/xlink" xml:space="preserve" xmlns:serif="http://www.serif.com/" style="fill-rule:evenodd;clip-rule:evenodd;">
    <g transform="matrix(1,0,0,1,30,-30)">
        <g>
            <path id="h1064249954" d="M196,87C196,87.549 196.451,88 197,88C197.549,88 198,87.549 198,87C198,86.451 197.549,86 197,86C196.451,86 196,86.451 196,87M196.5,87C196.5,87.274 196.726,87.5 197,87.5C197.274,87.5 197.5,87.274 197.5,87C197.5,86.726 197.274,86.5 197,86.5C196.726,86.5 196.5,86.726 196.5,87M197,87L185,87M196,93C196,93.549 196.451,94 197,94C197.549,94 198,93.549 198,93C198,92.451 197.549,92 197,92C196.451,92 196,92.451 196,93M196.5,93C196.5,93.274 196.726,93.5 197,93.5C197.274,93.5 197.5,93.274 197.5,93C197.5,92.726 197.274,92.5 197,92.5C196.726,92.5 196.5,92.726 196.5,93M197,93L190,87L197,81M196,81C196,81.549 196.451,82 197,82C197.549,82 198,81.549 198,81C198,80.451 197.549,80 197,80C196.451,80 196,80.451 196,81M196.5,81C196.5,81.274 196.726,81.5 197,81.5C197.274,81.5 197.5,81.274 197.5,81C197.5,80.726 197.274,80.5 197,80.5C196.726,80.5 196.5,80.726 196.5,81M185,87L110.05,87M97.05,87C97.05,87.549 97.501,88 98.05,88C98.599,88 99.05,87.549 99.05,87C99.05,86.451 98.599,86 98.05,86C97.501,86 97.05,86.451 97.05,87M97.55,87C97.55,87.274 97.776,87.5 98.05,87.5C98.324,87.5 98.55,87.274 98.55,87C98.55,86.726 98.324,86.5 98.05,86.5C97.776,86.5 97.55,86.726 97.55,87M98.05,87L110.05,87M104.05,93L104.05,81" style="fill:none;fill-rule:nonzero;stroke:rgb(195,195,195);stroke-width:1px;"/>
            <path id="h71330608" d="M471,87C471,87.549 471.451,88 472,88C472.549,88 473,87.549 473,87C473,86.451 472.549,86 472,86C471.451,86 471,86.451 471,87M471.5,87C471.5,87.274 471.726,87.5 472,87.5C472.274,87.5 472.5,87.274 472.5,87C472.5,86.726 472.274,86.5 472,86.5C471.726,86.5 471.5,86.726 471.5,87M472,87L460,87M471,93C471,93.549 471.451,94 472,94C472.549,94 473,93.549 473,93C473,92.451 472.549,92 472,92C471.451,92 471,92.451 471,93M471.5,93C471.5,93.274 471.726,93.5 472,93.5C472.274,93.5 472.5,93.274 472.5,93C472.5,92.726 472.274,92.5 472,92.5C471.726,92.5 471.5,92.726 471.5,93M472,93L465,87L472,81M471,81C471,81.549 471.451,82 472,82C472.549,82 473,81.549 473,81C473,80.451 472.549,80 472,80C471.451,80 471,80.451 471,81M471.5,81C471.5,81.274 471.726,81.5 472,81.5C472.274,81.5 472.5,81.274 472.5,81C472.5,80.726 472.274,80.5 472,80.5C471.726,80.5 471.5,80.726 471.5,81M460,87L371.98,87M358.98,87C358.98,87.549 359.431,88 359.98,88C360.529,88 360.98,87.549 360.98,87C360.98,86.451 360.529,86 359.98,86C359.431,86 358.98,86.451 358.98,87M359.48,87C359.48,87.274 359.706,87.5 359.98,87.5C360.254,87.5 360.48,87.274 360.48,87C360.48,86.726 360.254,86.5 359.98,86.5C359.706,86.5 359.48,86.726 359.48,87M359.98,87L371.98,87M365.98,93L365.98,81" style="fill:none;fill-rule:nonzero;stroke:rgb(195,195,195);stroke-width:1px;"/>
            <path id="h3480759009" d="M471,199C471,199.549 471.451,200 472,200C472.549,200 473,199.549 473,199C473,198.451 472.549,198 472,198C471.451,198 471,198.451 471,199M471.5,199C471.5,199.274 471.726,199.5 472,199.5C472.274,199.5 472.5,199.274 472.5,199C472.5,198.726 472.274,198.5 472,198.5C471.726,198.5 471.5,198.726 471.5,199M472,199L460,199M471,205C471,205.549 471.451,206 472,206C472.549,206 473,205.549 473,205C473,204.451 472.549,204 472,204C471.451,204 471,204.451 471,205M471.5,205C471.5,205.274 471.726,205.5 472,205.5C472.274,205.5 472.5,205.274 472.5,205C472.5,204.726 472.274,204.5 472,204.5C471.726,204.5 471.5,204.726 471.5,205M472,205L465,199L472,193M471,193C471,193.549 471.451,194 472,194C472.549,194 473,193.549 473,193C473,192.451 472.549,192 472,192C471.451,192 471,192.451 471,193M471.5,193C471.5,193.274 471.726,193.5 472,193.5C472.274,193.5 472.5,193.274 472.5,193C472.5,192.726 472.274,192.5 472,192.5C471.726,192.5 471.5,192.726 471.5,193M460,199C445.333,199 430.663,180.333 415.99,143C401.317,105.667 386.647,87 371.98,87M358.98,87C358.98,87.549 359.431,88 359.98,88C360.529,88 360.98,87.549 360.98,87C360.98,86.451 360.529,86 359.98,86C359.431,86 358.98,86.451 358.98,87M359.48,87C359.48,87.274 359.706,87.5 359.98,87.5C360.254,87.5 360.48,87.274 360.48,87C360.48,86.726 360.254,86.5 359.98,86.5C359.706,86.5 359.48,86.726 359.48,87M359.98,87L371.98,87M365.98,93L365.98,81" style="fill:none;fill-rule:nonzero;stroke:rgb(195,195,195);stroke-width:1px;"/>
            <path id="h4258945490" d="M472,311C472,311.549 472.451,312 473,312C473.549,312 474,311.549 474,311C474,310.451 473.549,310 473,310C472.451,310 472,310.451 472,311M472.5,311C472.5,311.274 472.726,311.5 473,311.5C473.274,311.5 473.5,311.274 473.5,311C473.5,310.726 473.274,310.5 473,310.5C472.726,310.5 472.5,310.726 472.5,311M473,311L461,311M472,317C472,317.549 472.451,318 473,318C473.549,318 474,317.549 474,317C474,316.451 473.549,316 473,316C472.451,316 472,316.451 472,317M472.5,317C472.5,317.274 472.726,317.5 473,317.5C473.274,317.5 473.5,317.274 473.5,317C473.5,316.726 473.274,316.5 473,316.5C472.726,316.5 472.5,316.726 472.5,317M473,317L466,311L473,305M472,305C472,305.549 472.451,306 473,306C473.549,306 474,305.549 474,305C474,304.451 473.549,304 473,304C472.451,304 472,304.451 472,305M472.5,305C472.5,305.274 472.726,305.5 473,305.5C473.274,305.5 473.5,305.274 473.5,305C473.5,304.726 473.274,304.5 473,304.5C472.726,304.5 472.5,304.726 472.5,305M461,311C446.167,311 431.33,273.667 416.49,199C401.65,124.333 386.813,87 371.98,87M358.98,87C358.98,87.549 359.431,88 359.98,88C360.529,88 360.98,87.549 360.98,87C360.98,86.451 360.529,86 359.98,86C359.431,86 358.98,86.451 358.98,87M359.48,87C359.48,87.274 359.706,87.5 359.98,87.5C360.254,87.5 360.48,87.274 360.48,87C360.48,86.726 360.254,86.5 359.98,86.5C359.706,86.5 359.48,86.726 359.48,87M359.98,87L371.98,87M365.98,93L365.98,81" style="fill:none;fill-rule:nonzero;stroke:rgb(195,195,195);stroke-width:1px;"/>
        </g>
        <g>
            <g id="h674122096" transform="matrix(1,0,0,1,-30,30)">
                <rect x="0" y="0" width="128.05" height="40" style="fill:rgb(0,90,160);"/>
                <g transform="matrix(1,0,0,1,13,25)">
                    <text x="0px" y="0px" style="font-family:'HelveticaNeue', 'Helvetica Neue';font-size:14px;fill:white;">public.r<tspan x="46.424px 53.942px " y="0px 0px ">eg</tspan>ions</text>
                </g>
                <rect x="0" y="40" width="128.05" height="160" style="fill:white;"/>
                <g>
                    <g transform="matrix(1,0,0,1,13,61)">
                        <text x="0px" y="0px" style="font-family:'HelveticaNeue', 'Helvetica Neue';font-size:12px;fill:rgb(50,60,70);">id</text>
                    </g>
                    <g transform="matrix(1,0,0,1,115.05,61)">
                        <text x="-13.116px" y="0px" style="font-family:'HelveticaNeue', 'Helvetica Neue';font-size:12px;fill:rgb(173,177,181);">int</text>
                    </g>
                </g>
                <g transform="matrix(0.65,0,0,0.65,82.3762,48)">
                    <path d="M7,14C5.903,14 5,13.097 5,12C5,10.903 5.903,10 7,10C8.097,10 9,10.903 9,12C9,13.097 8.097,14 7,14M12.65,10C11.83,7.67 9.61,6 7,6C3.708,6 1,8.708 1,12C1,15.292 3.708,18 7,18C9.61,18 11.83,16.33 12.65,14L17,14L17,18L21,18L21,14L23,14L23,10L12.65,10Z" style="fill:rgb(194,199,206);fill-rule:nonzero;stroke:rgb(194,199,206);stroke-width:1px;"/>
                </g>
                <g>
                    <g transform="matrix(1,0,0,1,13,86)">
                        <text x="0px" y="0px" style="font-family:'HelveticaNeue', 'Helvetica Neue';font-size:12px;fill:rgb(50,60,70);">name</text>
                    </g>
                    <g transform="matrix(1,0,0,1,115.05,86)">
                        <text x="-30px" y="0px" style="font-family:'HelveticaNeue', 'Helvetica Neue';font-size:12px;fill:rgb(173,177,181);">string</text>
                    </g>
                </g>
                <g transform="matrix(0.5,0,0,0.5,69.7063,75.5)">
                    <path d="M22,18L22,22L18,22L18,19L15,19L15,16L12,16L9.74,13.74C9.19,13.91 8.61,14 8,14C4.708,14 2,11.292 2,8C2,4.708 4.708,2 8,2C11.292,2 14,4.708 14,8C14,8.61 13.91,9.19 13.74,9.74L22,18M7,5C5.903,5 5,5.903 5,7C5,8.097 5.903,9 7,9C8.097,9 9,8.097 9,7C9,5.903 8.097,5 7,5Z" style="fill:rgb(194,199,206);fill-rule:nonzero;stroke:rgb(194,199,206);stroke-width:1px;"/>
                </g>
                <g>
                    <g transform="matrix(1,0,0,1,13,111)">
                        <text x="0px" y="0px" style="font-family:'HelveticaNeue', 'Helvetica Neue';font-size:12px;fill:rgb(50,60,70);">ra</text>
                    </g>
                    <g transform="matrix(1,0,0,1,115.05,111)">
                        <text x="-36.9px" y="0px" style="font-family:'HelveticaNeue', 'Helvetica Neue';font-size:12px;fill:rgb(173,177,181);">double</text>
                    </g>
                </g>
                <g>
                    <g transform="matrix(1,0,0,1,13,136)">
                        <text x="0px" y="0px" style="font-family:'HelveticaNeue', 'Helvetica Neue';font-size:12px;fill:rgb(50,60,70);">dec</text>
                    </g>
                    <g transform="matrix(1,0,0,1,115.05,136)">
                        <text x="-36.9px" y="0px" style="font-family:'HelveticaNeue', 'Helvetica Neue';font-size:12px;fill:rgb(173,177,181);">double</text>
                    </g>
                </g>
                <g>
                    <g transform="matrix(1,0,0,1,13,161)">
                        <text x="0px" y="0px" style="font-family:'HelveticaNeue', 'Helvetica Neue';font-size:12px;fill:rgb(50,60,70);">diam</text>
                    </g>
                    <g transform="matrix(1,0,0,1,115.05,161)">
                        <text x="-23.328px" y="0px" style="font-family:'HelveticaNeue', 'Helvetica Neue';font-size:12px;fill:rgb(173,177,181);">ﬂoat</text>
                    </g>
                </g>
                <g>
                    <g transform="matrix(1,0,0,1,13,186)">
                        <text x="0px" y="0px" style="font-family:'HelveticaNeue', 'Helvetica Neue';font-size:12px;fill:rgb(50,60,70);">pr<tspan x="10.896px 17.784px " y="0px 0px ">op</tspan>erties</text>
                    </g>
                    <g transform="matrix(1,0,0,1,115.05,186)">
                        <text x="-29.34px" y="0px" style="font-family:'HelveticaNeue', 'Helvetica Neue';font-size:12px;fill:rgb(173,177,181);">jsonb</text>
                    </g>
                </g>
            </g>
            <g id="h3388445335" transform="matrix(1,0,0,1,472,30)">
                <rect x="0" y="0" width="243.44" height="40" style="fill:rgb(0,90,160);"/>
                <g transform="matrix(1,0,0,1,13,25)">
                    <text x="0px" y="0px" style="font-family:'HelveticaNeue', 'Helvetica Neue';font-size:14px;fill:white;">gaiadr2.r<tspan x="55.23px 62.748px " y="0px 0px ">eg</tspan>ion_x</text>
                </g>
                <rect x="0" y="40" width="243.44" height="60" style="fill:white;"/>
                <g>
                    <g transform="matrix(1,0,0,1,13,61)">
                        <text x="0px" y="0px" style="font-family:'HelveticaNeue', 'Helvetica Neue';font-size:12px;fill:rgb(50,60,70);">r<tspan x="3.78px 10.224px " y="0px 0px ">eg</tspan>ion_id=x</text>
                    </g>
                    <g transform="matrix(1,0,0,1,230.44,61)">
                        <text x="-13.116px" y="0px" style="font-family:'HelveticaNeue', 'Helvetica Neue';font-size:12px;fill:rgb(173,177,181);">int</text>
                    </g>
                </g>
                <g transform="matrix(1,0,0,1,13,86)">
                    <text x="0px" y="0px" style="font-family:'HelveticaNeue', 'Helvetica Neue';font-size:12px;fill:rgb(115,115,115);">same ﬁelds as public.gaiadr2_sour<tspan x="185.592px 192.036px " y="0px 0px ">ce</tspan></text>
                </g>
            </g>
            <g id="h3565255574" transform="matrix(1,0,0,1,473,254)">
                <rect x="0" y="0" width="243.44" height="40" style="fill:rgb(0,90,160);"/>
                <g transform="matrix(1,0,0,1,13,25)">
                    <text x="0px" y="0px" style="font-family:'HelveticaNeue', 'Helvetica Neue';font-size:14px;fill:white;">gaiadr2.r<tspan x="55.23px 62.748px " y="0px 0px ">eg</tspan>ion_z</text>
                </g>
                <rect x="0" y="40" width="243.44" height="60" style="fill:white;"/>
                <g>
                    <g transform="matrix(1,0,0,1,13,61)">
                        <text x="0px" y="0px" style="font-family:'HelveticaNeue', 'Helvetica Neue';font-size:12px;fill:rgb(50,60,70);">r<tspan x="3.78px 10.224px " y="0px 0px ">eg</tspan>ion_id=z</text>
                    </g>
                    <g transform="matrix(1,0,0,1,230.44,61)">
                        <text x="-13.116px" y="0px" style="font-family:'HelveticaNeue', 'Helvetica Neue';font-size:12px;fill:rgb(173,177,181);">int</text>
                    </g>
                </g>
                <g transform="matrix(1,0,0,1,13,86)">
                    <text x="0px" y="0px" style="font-family:'HelveticaNeue', 'Helvetica Neue';font-size:12px;fill:rgb(115,115,115);">same ﬁelds as public.gaiadr2_sour<tspan x="185.592px 192.036px " y="0px 0px ">ce</tspan></text>
                </g>
            </g>
            <g id="h2179530839" transform="matrix(1,0,0,1,197,30)">
                <rect x="0" y="0" width="162.98" height="40" style="fill:rgb(0,90,160);"/>
                <g transform="matrix(1,0,0,1,13,25)">
                    <text x="0px" y="0px" style="font-family:'HelveticaNeue', 'Helvetica Neue';font-size:14px;fill:white;">public.gaiadr2_sour<tspan x="123.172px 130.69px " y="0px 0px ">ce</tspan></text>
                </g>
                <rect x="0" y="40" width="162.98" height="85" style="fill:white;"/>
                <g>
                    <g transform="matrix(1,0,0,1,13,61)">
                        <text x="0px" y="0px" style="font-family:'HelveticaNeue', 'Helvetica Neue';font-size:12px;fill:rgb(50,60,70);">r<tspan x="3.78px 10.224px " y="0px 0px ">eg</tspan>ion_id</text>
                    </g>
                    <g transform="matrix(1,0,0,1,149.98,61)">
                        <text x="-13.116px" y="0px" style="font-family:'HelveticaNeue', 'Helvetica Neue';font-size:12px;fill:rgb(173,177,181);">int</text>
                    </g>
                </g>
                <g>
                    <g transform="matrix(1,0,0,1,13,86)">
                        <text x="0px" y="0px" style="font-family:'HelveticaNeue', 'Helvetica Neue';font-size:12px;fill:rgb(50,60,70);">sour<tspan x="23.34px 29.784px " y="0px 0px ">ce</tspan>_id</text>
                    </g>
                    <g transform="matrix(1,0,0,1,149.98,86)">
                        <text x="-13.116px" y="0px" style="font-family:'HelveticaNeue', 'Helvetica Neue';font-size:12px;fill:rgb(173,177,181);">int</text>
                    </g>
                </g>
                <g transform="matrix(1,0,0,1,13,111)">
                    <text x="0px" y="0px" style="font-family:'HelveticaNeue', 'Helvetica Neue';font-size:12px;fill:rgb(115,115,115);">all gaia dr2 ﬁelds</text>
                </g>
            </g>
            <g id="h4055996017" transform="matrix(1,0,0,1,472,142)">
                <rect x="0" y="0" width="243.44" height="40" style="fill:rgb(0,90,160);"/>
                <g transform="matrix(1,0,0,1,13,25)">
                    <text x="0px" y="0px" style="font-family:'HelveticaNeue', 'Helvetica Neue';font-size:14px;fill:white;">gaiadr2.r<tspan x="55.23px 62.748px " y="0px 0px ">eg</tspan>ion_y</text>
                </g>
                <rect x="0" y="40" width="243.44" height="60" style="fill:white;"/>
                <g>
                    <g transform="matrix(1,0,0,1,13,61)">
                        <text x="0px" y="0px" style="font-family:'HelveticaNeue', 'Helvetica Neue';font-size:12px;fill:rgb(50,60,70);">r<tspan x="3.78px 10.224px " y="0px 0px ">eg</tspan>ion_id=y</text>
                    </g>
                    <g transform="matrix(1,0,0,1,230.44,61)">
                        <text x="-13.116px" y="0px" style="font-family:'HelveticaNeue', 'Helvetica Neue';font-size:12px;fill:rgb(173,177,181);">int</text>
                    </g>
                </g>
                <g transform="matrix(1,0,0,1,13,86)">
                    <text x="0px" y="0px" style="font-family:'HelveticaNeue', 'Helvetica Neue';font-size:12px;fill:rgb(115,115,115);">same ﬁelds as public.gaiadr2_sour<tspan x="185.592px 192.036px " y="0px 0px ">ce</tspan></text>
                </g>
            </g>
        </g>
    </g>
</svg>
